<svg xmlns="http://www.w3.org/2000/svg" width="380" height="184" viewBox="0 0 380 184" role="img" aria-labelledby="title desc">
  <title id="title">Sorted on GitHub</title><desc id="desc">Sorted, @Sorted1. Runs Storm Development.</desc>
  <defs>
    <linearGradient id="bg" x1="0" y1="0" x2="1" y2="1"><stop stop-color="#181320"/><stop offset="1" stop-color="#0b0a10"/></linearGradient>
    <clipPath id="avatarClip"><circle cx="70" cy="100" r="44"/></clipPath>
  </defs>
  <style>
    .ring { animation: turn 20s linear infinite; transform-origin: 70px 100px; }
    .cursor { animation: blink 1.1s steps(1) infinite; }
    @keyframes turn { to { transform: rotate(360deg); } }
    @keyframes blink { 50% { opacity: 0; } }
    @media (prefers-reduced-motion: reduce) { .ring,.cursor { animation: none; } }
  </style>
  <rect x=".5" y=".5" width="379" height="183" rx="20" fill="url(#bg)" stroke="#594171"/>
  <path d="M1 39h378" stroke="#fff" stroke-opacity=".09"/>
  <circle cx="19" cy="20" r="3" fill="#bd8af5"/><circle cx="30" cy="20" r="3" fill="#5c496c"/><circle cx="41" cy="20" r="3" fill="#3d304b"/>
  <text x="190" y="24" text-anchor="middle" fill="#aca0ba" font-family="Arial,Helvetica,sans-serif" font-size="10">github.com/Sorted1</text>
  <circle cx="70" cy="100" r="48" fill="none" stroke="#ae7ce4" stroke-opacity=".5"/>
  <circle cx="70" cy="100" r="44" fill="#191324" stroke="#795a9c"/>
  <g clip-path="url(#avatarClip)">
    <path d="M26 114c13-19 27-26 44-29 19 3 32 10 44 29-16-6-26-6-39 2l-5 25-5-25c-13-8-23-8-39-2Z" fill="#eee7f5"/>
    <path d="M27 115C34 88 45 74 57 67c-3 11-2 18 6 28-13 3-22 8-36 20Zm86 0c-7-27-18-41-30-48 3 11 2 18-6 28 13 3 22 8 36 20Z" fill="#b8a6ce" opacity=".6"/>
  </g>
  <g class="ring"><circle cx="70" cy="52" r="2.5" fill="#eee0ff"/></g>
  <text x="135" y="91" fill="#f8f5ff" font-family="Arial,Helvetica,sans-serif" font-size="34" font-weight="700">Sorted</text>
  <text x="137" y="116" fill="#c797ff" font-family="Arial,Helvetica,sans-serif" font-size="18">@Sorted1<tspan class="cursor">_</tspan></text>
  <text x="137" y="140" fill="#ab9bb9" font-family="Arial,Helvetica,sans-serif" font-size="12" letter-spacing="1.3">RUNS STORM DEVELOPMENT</text>
  <text x="356" y="167" text-anchor="end" fill="#bd8eea" font-family="Arial,Helvetica,sans-serif" font-size="11" font-weight="700" letter-spacing="1.2">OPEN PROFILE ↗</text>
</svg>
